<svg width="332" height="323" viewBox="0 0 332 323" fill="none" xmlns="http://www.w3.org/2000/svg">
<path d="M232.889 321.033C232.541 321.399 232.181 321.759 231.815 322.12H190.143C189.8 321.769 189.462 321.408 189.124 321.033C189.111 321.019 189.097 321.001 189.083 320.987C184.556 315.971 181.705 308.68 179.928 300.992C179.814 300.526 179.714 300.055 179.613 299.58C179.147 297.42 178.768 295.236 178.458 293.071C178.403 292.696 178.348 292.321 178.302 291.947C177.882 288.836 177.599 285.775 177.416 282.901C177.393 282.531 177.37 282.171 177.347 281.81C177.013 276.089 177.01 270.354 177.338 264.633C177.338 264.633 177.393 264.633 177.498 264.637C177.804 264.651 178.54 264.683 179.622 264.747C182.605 264.93 188.234 265.387 194.853 266.465C195.214 266.524 195.579 266.588 195.945 266.652C201.544 267.577 207.067 268.915 212.468 270.654C212.807 270.768 213.14 270.882 213.478 270.996L213.483 271.019L217.626 291.81L219.344 273.303C220.71 273.92 222.039 274.578 223.314 275.282C223.67 275.478 224.017 275.674 224.36 275.875C227.274 277.527 229.919 279.612 232.204 282.061C245.794 297.123 242.884 310.585 232.889 321.033Z" fill="#313335"/>
<path d="M215.474 294.67L216.197 295.471C224.547 304.817 229.531 313.492 231.066 321.382C231.09 321.496 231.107 321.611 231.132 321.725L230.597 321.826L230.083 321.917C228.516 313.315 222.681 304.423 215.4 296.269C215.168 296.004 214.932 295.735 214.689 295.473C211.576 292.049 208.229 288.763 204.845 285.692C204.585 285.452 204.318 285.211 204.05 284.971C199.563 280.939 195.048 277.292 191.021 274.218C190.738 273.999 190.45 273.784 190.166 273.573C183.329 268.398 178.025 264.967 176.843 264.215C176.7 264.121 176.619 264.071 176.601 264.059L176.881 263.612L176.881 263.605L177.165 263.154C177.183 263.167 177.455 263.332 177.945 263.652C179.785 264.838 184.731 268.103 190.885 272.745C191.161 272.955 191.449 273.17 191.732 273.389C195.003 275.88 198.579 278.735 202.191 281.86C203.1 282.643 203.986 283.426 204.849 284.207C205.12 284.443 205.388 284.684 205.647 284.924C209.306 288.244 212.582 291.493 215.474 294.67Z" fill="#3E4143"/>
<path d="M195.246 265.578C195.123 265.875 194.99 266.172 194.853 266.465C193.81 268.723 192.475 270.835 190.883 272.746C190.65 273.02 190.413 273.299 190.166 273.573C189.499 274.309 188.789 275.02 188.037 275.706C184.959 278.493 181.311 280.575 177.347 281.81C177.219 281.851 177.096 281.892 176.968 281.928C176.991 282.289 177.014 282.646 177.037 283.016C177.165 282.979 177.288 282.943 177.416 282.902C181.622 281.633 185.493 279.446 188.75 276.497C189.546 275.777 190.304 275.016 191.02 274.217C191.267 273.948 191.505 273.669 191.733 273.39C193.435 271.345 194.852 269.078 195.945 266.652C196.073 266.36 196.201 266.067 196.324 265.77C195.959 265.706 195.598 265.642 195.246 265.578Z" fill="#3E4143"/>
<path d="M212.656 269.845C212.601 270.115 212.537 270.384 212.468 270.654C211.23 275.789 208.592 280.481 204.849 284.208C204.588 284.468 204.323 284.724 204.049 284.971C203.971 285.049 203.885 285.131 203.802 285.204C200.397 288.278 196.306 290.494 191.87 291.667C187.434 292.84 182.782 292.936 178.302 291.947C178.197 291.929 178.087 291.901 177.982 291.878C178.037 292.253 178.087 292.632 178.147 293.007C178.252 293.03 178.352 293.052 178.458 293.071C183.051 294.021 187.805 293.876 192.332 292.646C196.859 291.417 201.033 289.138 204.515 285.994C204.625 285.894 204.739 285.798 204.844 285.693C205.118 285.437 205.383 285.181 205.648 284.925C209.479 281.091 212.189 276.283 213.483 271.019C213.551 270.745 213.615 270.471 213.675 270.197C213.336 270.078 212.998 269.96 212.656 269.845Z" fill="#3E4143"/>
<path d="M223.314 274.51C223.318 274.765 223.318 275.026 223.314 275.282C223.237 282.501 220.438 289.426 215.474 294.669C215.219 294.944 214.954 295.209 214.689 295.473C214.401 295.752 214.113 296.031 213.816 296.296C209.221 300.438 203.415 302.993 197.257 303.584C191.099 304.176 184.913 302.772 179.613 299.58C179.522 299.533 179.434 299.481 179.348 299.425C179.458 299.909 179.568 300.384 179.686 300.859C179.769 300.905 179.846 300.951 179.928 300.992C185.382 304.033 191.65 305.291 197.855 304.592C204.059 303.892 209.889 301.269 214.529 297.091C214.826 296.821 215.123 296.552 215.401 296.268C215.675 296.008 215.936 295.743 216.196 295.469C221.229 290.161 224.135 283.187 224.36 275.875C224.369 275.629 224.374 275.382 224.373 275.135C224.026 274.921 223.67 274.715 223.314 274.51Z" fill="#3E4143"/>
<path d="M130.958 75.6411H50.6543C49.986 75.6404 49.3453 75.3746 48.8728 74.902C48.4002 74.4295 48.1344 73.7888 48.1337 73.1205V12.145C48.1344 11.4767 48.4002 10.836 48.8727 10.3634C49.3453 9.89085 49.986 9.625 50.6543 9.62421H149.224C149.892 9.625 150.533 9.89085 151.005 10.3634C151.478 10.836 151.744 11.4767 151.744 12.145V54.8553C151.738 60.3661 149.546 65.6495 145.649 69.5462C141.753 73.443 136.469 75.6349 130.958 75.6411Z" fill="#313335"/>
<path d="M130.958 75.8695H50.6542C49.9253 75.8687 49.2266 75.5788 48.7113 75.0634C48.1959 74.5481 47.906 73.8493 47.9052 73.1205V12.145C47.906 11.4162 48.1958 10.7174 48.7112 10.202C49.2266 9.68662 49.9253 9.39669 50.6542 9.39581H149.224C149.952 9.39665 150.651 9.68657 151.167 10.202C151.682 10.7174 151.972 11.4162 151.973 12.145V54.8553C151.966 60.4267 149.75 65.7681 145.811 69.7076C141.871 73.6472 136.53 75.8632 130.958 75.8695ZM50.6542 10.3095C50.1675 10.3101 49.701 10.5037 49.3569 10.8478C49.0129 11.1919 48.8193 11.6584 48.8188 12.145V73.1205C48.8194 73.6071 49.0129 74.0736 49.357 74.4177C49.7011 74.7618 50.1676 74.9553 50.6542 74.9559H130.958C136.288 74.9499 141.397 72.8302 145.165 69.0619C148.933 65.2936 151.053 60.1845 151.059 54.8553V12.145C151.058 11.6584 150.865 11.1919 150.521 10.8478C150.177 10.5037 149.71 10.3101 149.224 10.3095H50.6542Z" fill="#313335"/>
<path d="M129.739 30.2168H70.1388C69.5916 30.2168 69.0668 29.9994 68.6799 29.6125C68.293 29.2256 68.0757 28.7009 68.0757 28.1537C68.0757 27.6066 68.293 27.0818 68.6799 26.6949C69.0668 26.308 69.5916 26.0906 70.1388 26.0906H129.739C130.285 26.0915 130.809 26.3092 131.196 26.696C131.582 27.0828 131.799 27.6071 131.799 28.1537C131.799 28.7004 131.582 29.2246 131.196 29.6114C130.809 29.9983 130.285 30.216 129.739 30.2168Z" fill="#3C3F42"/>
<path d="M129.739 44.4291H70.1388C69.5916 44.4291 69.0668 44.2118 68.6799 43.8249C68.293 43.438 68.0757 42.9132 68.0757 42.3661C68.0757 41.8189 68.293 41.2941 68.6799 40.9072C69.0668 40.5203 69.5916 40.303 70.1388 40.303H129.739C130.286 40.303 130.811 40.5203 131.198 40.9072C131.585 41.2941 131.802 41.8189 131.802 42.3661C131.802 42.9132 131.585 43.438 131.198 43.8249C130.811 44.2118 130.286 44.4291 129.739 44.4291Z" fill="#3C3F42"/>
<path d="M129.739 59.0477H70.1388C69.5916 59.0477 69.0668 58.8303 68.6799 58.4434C68.293 58.0565 68.0757 57.5317 68.0757 56.9846C68.0757 56.4374 68.293 55.9127 68.6799 55.5258C69.0668 55.1389 69.5916 54.9215 70.1388 54.9215H129.739C130.286 54.9215 130.811 55.1389 131.198 55.5258C131.585 55.9127 131.802 56.4374 131.802 56.9846C131.802 57.5317 131.585 58.0565 131.198 58.4434C130.811 58.8303 130.286 59.0477 129.739 59.0477Z" fill="#3C3F42"/>
<path d="M148.483 24.6401C155.288 24.6401 160.804 19.1242 160.804 12.32C160.804 5.51587 155.288 0 148.483 0C141.679 0 136.163 5.51587 136.163 12.32C136.163 19.1242 141.679 24.6401 148.483 24.6401Z" fill="#39A485"/>
<path d="M146.803 18.732C146.59 18.732 146.38 18.6825 146.19 18.5873C146 18.4921 145.834 18.354 145.707 18.1837L142.345 13.7022C142.238 13.5582 142.159 13.3944 142.114 13.2201C142.07 13.0457 142.06 12.8643 142.085 12.6861C142.111 12.508 142.171 12.3366 142.263 12.1817C142.354 12.0269 142.476 11.8916 142.62 11.7836C142.764 11.6757 142.927 11.5971 143.102 11.5525C143.276 11.5078 143.458 11.4979 143.636 11.5234C143.814 11.5488 143.985 11.6091 144.14 11.7008C144.295 11.7925 144.43 11.9138 144.538 12.0578L146.737 14.9895L152.385 6.51805C152.586 6.21562 152.9 6.00568 153.256 5.93439C153.613 5.86311 153.983 5.93633 154.285 6.13795C154.588 6.33957 154.798 6.65306 154.869 7.00947C154.94 7.36588 154.867 7.73601 154.665 8.03843L147.943 18.1217C147.822 18.3041 147.658 18.4546 147.466 18.5607C147.274 18.6669 147.06 18.7254 146.841 18.7316C146.828 18.7318 146.816 18.732 146.803 18.732Z" fill="white"/>
<path d="M101.319 128.601H21.0143C15.5035 128.595 10.2201 126.403 6.3234 122.506C2.42665 118.609 0.234733 113.326 0.228516 107.815V65.1048C0.2293 64.4365 0.495139 63.7958 0.967714 63.3232C1.44029 62.8506 2.08101 62.5848 2.74934 62.584H101.319C101.987 62.5848 102.628 62.8506 103.1 63.3232C103.573 63.7958 103.839 64.4365 103.839 65.1048V126.08C103.839 126.749 103.573 127.389 103.1 127.862C102.628 128.334 101.987 128.6 101.319 128.601Z" fill="#313335"/>
<path d="M101.318 128.83H21.0142C15.4428 128.823 10.1015 126.607 6.16191 122.668C2.22236 118.728 0.00633449 113.387 0 107.815V65.1048C0.000825821 64.3759 0.290743 63.6771 0.806145 63.1617C1.32155 62.6463 2.02035 62.3564 2.74924 62.3556H101.318C102.047 62.3564 102.746 62.6463 103.262 63.1617C103.777 63.6771 104.067 64.3759 104.068 65.1048V126.08C104.067 126.809 103.777 127.508 103.262 128.023C102.746 128.539 102.047 128.829 101.318 128.83ZM2.74924 63.2693C2.26259 63.2698 1.79605 63.4634 1.45194 63.8075C1.10783 64.1516 0.914247 64.6182 0.913661 65.1048V107.815C0.91968 113.144 3.03934 118.254 6.80762 122.022C10.5759 125.79 15.6851 127.91 21.0142 127.916H101.318C101.805 127.915 102.272 127.722 102.616 127.378C102.96 127.034 103.153 126.567 103.154 126.08V65.1048C103.153 64.6182 102.96 64.1516 102.616 63.8075C102.272 63.4634 101.805 63.2698 101.318 63.2693H2.74924Z" fill="#313335"/>
<path d="M81.8338 83.1766H22.2337C21.6866 83.1766 21.1618 82.9592 20.7749 82.5723C20.388 82.1854 20.1707 81.6607 20.1707 81.1135C20.1707 80.5663 20.388 80.0416 20.7749 79.6547C21.1618 79.2678 21.6866 79.0504 22.2337 79.0504H81.8338C82.381 79.0504 82.9057 79.2678 83.2926 79.6547C83.6795 80.0416 83.8969 80.5663 83.8969 81.1135C83.8969 81.6607 83.6795 82.1854 83.2926 82.5723C82.9057 82.9592 82.381 83.1766 81.8338 83.1766Z" fill="#3C3F42"/>
<path d="M81.8338 97.3889H22.2337C21.6866 97.3889 21.1618 97.1716 20.7749 96.7846C20.388 96.3977 20.1707 95.873 20.1707 95.3258C20.1707 94.7787 20.388 94.2539 20.7749 93.867C21.1618 93.4801 21.6866 93.2628 22.2337 93.2628H81.8338C82.381 93.2628 82.9057 93.4801 83.2926 93.867C83.6795 94.2539 83.8969 94.7787 83.8969 95.3258C83.8969 95.873 83.6795 96.3977 83.2926 96.7846C82.9057 97.1716 82.381 97.3889 81.8338 97.3889Z" fill="#3C3F42"/>
<path d="M81.8338 112.008H22.2337C21.6866 112.008 21.1618 111.79 20.7749 111.403C20.388 111.016 20.1707 110.492 20.1707 109.944C20.1707 109.397 20.388 108.873 20.7749 108.486C21.1618 108.099 21.6866 107.881 22.2337 107.881H81.8338C82.381 107.881 82.9057 108.099 83.2926 108.486C83.6795 108.873 83.8969 109.397 83.8969 109.944C83.8969 110.492 83.6795 111.016 83.2926 111.403C82.9057 111.79 82.381 112.008 81.8338 112.008Z" fill="#3C3F42"/>
<path d="M101.43 78.0892C108.234 78.0892 113.75 72.5734 113.75 65.7692C113.75 58.965 108.234 53.4492 101.43 53.4492C94.626 53.4492 89.1101 58.965 89.1101 65.7692C89.1101 72.5734 94.626 78.0892 101.43 78.0892Z" fill="#39A485"/>
<path d="M99.7493 72.1812C99.5366 72.1812 99.3268 72.1316 99.1365 72.0365C98.9462 71.9413 98.7807 71.8031 98.6531 71.6329L95.292 67.1514C95.184 67.0074 95.1055 66.8435 95.0608 66.6692C95.0162 66.4949 95.0063 66.3135 95.0317 66.1353C95.0572 65.9571 95.1175 65.7857 95.2092 65.6309C95.3009 65.476 95.4222 65.3408 95.5661 65.2328C95.7101 65.1248 95.8739 65.0463 96.0483 65.0016C96.2226 64.957 96.404 64.9471 96.5822 64.9725C96.7603 64.998 96.9317 65.0583 97.0866 65.15C97.2414 65.2417 97.3767 65.363 97.4847 65.5069L99.6836 68.4386L105.331 59.9672C105.533 59.6648 105.846 59.4548 106.203 59.3836C106.559 59.3123 106.929 59.3855 107.232 59.5871C107.534 59.7887 107.744 60.1022 107.815 60.4586C107.887 60.815 107.814 61.1852 107.612 61.4876L100.89 71.5709C100.768 71.7532 100.605 71.9038 100.413 72.0099C100.221 72.116 100.007 72.1746 99.7875 72.1807C99.7748 72.181 99.762 72.1812 99.7493 72.1812Z" fill="white"/>
<path d="M201.375 185.437H89.0117C83.5009 185.431 78.2176 183.239 74.3208 179.342C70.4241 175.445 68.2322 170.162 68.226 164.651V101.831C68.2269 100.969 68.5696 100.143 69.1788 99.534C69.7879 98.9249 70.6138 98.5822 71.4753 98.5812H201.375C202.237 98.5822 203.063 98.9249 203.672 99.5341C204.281 100.143 204.624 100.969 204.625 101.831V182.187C204.624 183.049 204.281 183.875 203.672 184.484C203.063 185.093 202.237 185.436 201.375 185.437Z" fill="#313335"/>
<path d="M201.376 185.665H89.0118C83.4404 185.659 78.099 183.443 74.1595 179.503C70.2199 175.564 68.0039 170.222 67.9976 164.651V101.831C67.9986 100.909 68.3653 100.025 69.0173 99.3726C69.6693 98.7206 70.5533 98.3539 71.4753 98.3528H201.376C202.298 98.3539 203.181 98.7207 203.833 99.3727C204.485 100.025 204.852 100.909 204.853 101.831V182.187C204.852 183.109 204.485 183.993 203.833 184.645C203.182 185.297 202.298 185.664 201.376 185.665ZM71.4753 99.2665C70.7955 99.2673 70.1438 99.5377 69.6631 100.018C69.1824 100.499 68.912 101.151 68.9112 101.831V164.651C68.9172 169.98 71.0369 175.089 74.8052 178.858C78.5735 182.626 83.6826 184.746 89.0118 184.752H201.376C202.055 184.751 202.707 184.48 203.188 184C203.668 183.519 203.939 182.867 203.939 182.187V101.831C203.939 101.151 203.668 100.499 203.188 100.018C202.707 99.5377 202.055 99.2673 201.376 99.2665H71.4753Z" fill="#313335"/>
<path d="M175.697 125.646H97.153C96.7957 125.647 96.4418 125.577 96.1115 125.441C95.7812 125.304 95.4811 125.104 95.2282 124.851C94.9754 124.599 94.7748 124.299 94.638 123.969C94.5011 123.639 94.4307 123.285 94.4307 122.928C94.4307 122.57 94.5011 122.216 94.638 121.886C94.7748 121.556 94.9754 121.256 95.2282 121.004C95.4811 120.751 95.7812 120.551 96.1115 120.415C96.4418 120.278 96.7957 120.208 97.153 120.209H175.697C176.055 120.208 176.409 120.278 176.739 120.415C177.069 120.551 177.369 120.751 177.622 121.004C177.875 121.256 178.076 121.556 178.212 121.886C178.349 122.216 178.42 122.57 178.42 122.928C178.42 123.285 178.349 123.639 178.212 123.969C178.076 124.299 177.875 124.599 177.622 124.851C177.369 125.104 177.069 125.304 176.739 125.441C176.409 125.577 176.055 125.647 175.697 125.646Z" fill="#3C3F42"/>
<path d="M175.697 144.376H97.153C96.7957 144.377 96.4418 144.307 96.1115 144.17C95.7812 144.034 95.4811 143.834 95.2282 143.581C94.9754 143.329 94.7748 143.029 94.638 142.699C94.5011 142.369 94.4307 142.015 94.4307 141.658C94.4307 141.3 94.5011 140.946 94.638 140.616C94.7748 140.286 94.9754 139.986 95.2282 139.734C95.4811 139.481 95.7812 139.281 96.1115 139.145C96.4418 139.008 96.7957 138.938 97.153 138.939H175.697C176.418 138.939 177.11 139.225 177.62 139.735C178.13 140.245 178.416 140.936 178.416 141.658C178.416 142.379 178.13 143.07 177.62 143.58C177.11 144.09 176.418 144.376 175.697 144.376Z" fill="#3C3F42"/>
<path d="M175.697 163.641H97.1532C96.4321 163.641 95.7405 163.355 95.2307 162.845C94.7208 162.335 94.4343 161.644 94.4343 160.923C94.4343 160.202 94.7208 159.51 95.2307 159C95.7405 158.49 96.4321 158.204 97.1532 158.204H175.697C176.055 158.203 176.409 158.273 176.739 158.41C177.069 158.546 177.369 158.746 177.622 158.999C177.875 159.251 178.076 159.551 178.213 159.881C178.349 160.211 178.42 160.565 178.42 160.923C178.42 161.28 178.349 161.634 178.213 161.964C178.076 162.294 177.875 162.594 177.622 162.846C177.369 163.099 177.069 163.299 176.739 163.436C176.409 163.572 176.055 163.642 175.697 163.641Z" fill="#3C3F42"/>
<path d="M201.783 119.095C210.397 119.095 217.379 112.112 217.379 103.499C217.379 94.8859 210.397 87.9034 201.783 87.9034C193.17 87.9034 186.188 94.8859 186.188 103.499C186.188 112.112 193.17 119.095 201.783 119.095Z" fill="#39A485"/>
<path d="M199.656 111.616C199.387 111.616 199.121 111.553 198.88 111.433C198.639 111.312 198.43 111.137 198.268 110.922L194.013 105.249C193.877 105.067 193.777 104.859 193.721 104.638C193.664 104.418 193.652 104.188 193.684 103.963C193.716 103.737 193.793 103.52 193.909 103.324C194.025 103.128 194.178 102.957 194.36 102.82C194.543 102.683 194.75 102.584 194.971 102.528C195.191 102.471 195.421 102.458 195.647 102.491C195.872 102.523 196.089 102.599 196.285 102.715C196.481 102.831 196.652 102.985 196.789 103.167L199.573 106.878L206.722 96.1545C206.978 95.7723 207.374 95.5072 207.825 95.4173C208.276 95.3275 208.744 95.4202 209.127 95.6752C209.509 95.9302 209.775 96.3266 209.865 96.7774C209.956 97.2281 209.863 97.6963 209.609 98.0792L201.099 110.843C200.946 111.074 200.738 111.265 200.496 111.399C200.253 111.533 199.982 111.608 199.704 111.615C199.688 111.616 199.672 111.616 199.656 111.616Z" fill="white"/>
<path d="M242.186 309.67L235.841 311.792L224.637 288.328L234.002 285.196L242.186 309.67Z" fill="#FFB6B6"/>
<path d="M245.862 315.279L225.402 320.751L225.316 320.492C224.605 318.365 224.764 317.458 225.765 315.451C226.255 314.463 226.936 313.581 227.768 312.858C228.601 312.134 229.569 311.583 230.616 311.236L230.616 311.236L233.405 307.15L241.326 307.654L243.112 307.057L245.862 315.279Z" fill="#3C3F42"/>
<path d="M257.863 315.636H251.173L247.989 289.829L257.864 289.83L257.863 315.636Z" fill="#FFB6B6"/>
<path d="M259.569 320.751L237.996 320.75V320.477C237.996 318.234 238.87 317.496 240.456 315.91C241.234 315.128 242.159 314.508 243.178 314.086C244.197 313.664 245.29 313.448 246.393 313.451H246.393L250.334 310.461L257.686 313.451L259.57 313.451L259.569 320.751Z" fill="#3C3F42"/>
<path d="M206.944 108.87C207.082 109.571 207.371 110.233 207.793 110.81C208.214 111.387 208.757 111.864 209.383 112.209C210.009 112.553 210.702 112.756 211.415 112.803C212.128 112.851 212.842 112.741 213.508 112.482L221.232 120.546L227.277 117.048L216.21 105.813C215.701 104.723 214.81 103.858 213.706 103.381C212.602 102.904 211.361 102.849 210.219 103.226C209.077 103.603 208.113 104.385 207.509 105.426C206.905 106.466 206.704 107.691 206.944 108.87Z" fill="#FFB6B6"/>
<path d="M256.931 149.416L260.413 145.814L240.277 127.165L220.01 109.069L214.397 117L235.635 136.824L256.931 149.416Z" fill="#CD7456"/>
<path d="M244.559 271.802C244.559 267.275 244.648 264.045 244.72 261.45C244.931 253.856 244.987 251.815 242.081 238.737L241.335 235.379L236.934 248.583C235.528 252.795 234.809 257.206 234.806 261.646L241.593 302.364H227.722L217.563 258.344L217.559 244.879C216.664 243.953 216.163 242.715 216.163 241.427C216.163 240.139 216.664 238.901 217.559 237.975L220.934 217.802L224.35 190.615H261.767C261.767 190.615 268.371 204.302 261.809 217.879L261.808 271.819L258.417 309.114H247.95L244.559 271.802Z" fill="#3C3F42"/>
<path d="M259.48 193.906L224.48 190.989L224.299 190.974L227.092 140.698C227.256 137.537 228.365 134.498 230.276 131.974C232.186 129.451 234.811 127.559 237.808 126.543V123.024C237.809 122.154 238.156 121.319 238.772 120.703C239.387 120.087 240.222 119.741 241.093 119.74H246.207C246.817 119.738 247.416 119.907 247.935 120.228C248.455 120.549 248.874 121.009 249.145 121.556L251.645 126.557L261.101 134.121C265.771 137.858 262.012 175.317 261.81 177.293L264.097 188.728C264.223 189.357 264.208 190.006 264.053 190.629C263.898 191.251 263.607 191.831 263.201 192.328C262.794 192.825 262.283 193.225 261.704 193.5C261.125 193.776 260.492 193.92 259.85 193.921C259.727 193.921 259.604 193.916 259.48 193.906Z" fill="#CD7456"/>
<path d="M222.416 207.18C222.969 206.728 223.417 206.161 223.727 205.517C224.037 204.874 224.202 204.17 224.211 203.456C224.22 202.741 224.072 202.034 223.778 201.383C223.484 200.732 223.05 200.153 222.508 199.688L225.981 189.075L220.046 185.392L215.353 200.448C214.631 201.41 214.288 202.604 214.388 203.803C214.488 205.001 215.024 206.121 215.894 206.951C216.765 207.781 217.91 208.263 219.112 208.305C220.314 208.347 221.489 207.947 222.416 207.18Z" fill="#FFB6B6"/>
<path d="M234.621 135.034L229.803 133.427L222.844 164.477L216.434 195.356L226.074 196.775L233.55 163.942L234.621 135.034Z" fill="#CD7456"/>
<path d="M239.883 116.526C246.231 116.526 251.378 111.38 251.378 105.032C251.378 98.6831 246.231 93.5367 239.883 93.5367C233.535 93.5367 228.388 98.6831 228.388 105.032C228.388 111.38 233.535 116.526 239.883 116.526Z" fill="#FFB6B6"/>
<path d="M224.417 99.4023C224.523 98.3129 224.835 97.2536 225.337 96.2809C225.874 97.4494 227.55 97.6521 228.697 97.0705C229.845 96.4889 230.613 95.3844 231.433 94.3934C233.596 91.7784 236.571 89.6572 239.943 89.2709C243.315 88.8845 247.032 90.5865 248.306 93.7322C248.877 92.9384 250.097 92.8501 250.96 93.3114C251.793 93.8369 252.444 94.6075 252.822 95.5173C253.67 97.2584 254.15 99.1561 254.23 101.091C254.311 103.026 253.99 104.957 253.289 106.763C251.87 110.356 248.363 115.196 244.746 116.552C242.55 117.376 240.332 116.322 237.996 116.552C238.118 114.003 238.613 110.858 238.735 108.309C238.802 106.913 238.812 105.351 237.858 104.33C237.566 104.052 237.216 103.842 236.833 103.714C236.45 103.587 236.045 103.545 235.644 103.592C235.243 103.639 234.858 103.773 234.515 103.985C234.172 104.197 233.88 104.482 233.659 104.82C233.541 104.027 233.273 103.264 232.871 102.572C232.664 102.228 232.365 101.949 232.008 101.767C231.652 101.584 231.251 101.504 230.851 101.537C229.876 101.697 229.274 102.698 228.379 103.118C227.871 103.321 227.312 103.365 226.778 103.242C226.245 103.12 225.761 102.837 225.392 102.433C225.034 102.019 224.763 101.538 224.595 101.017C224.428 100.496 224.367 99.947 224.417 99.4023Z" fill="#2F2E41"/>
<path opacity="0.1" d="M241.371 163.802L227.871 190.802H237.996L241.371 163.802Z" fill="black"/>
<path d="M331.852 321.577C331.852 321.648 331.838 321.719 331.811 321.785C331.784 321.851 331.744 321.911 331.693 321.962C331.643 322.012 331.583 322.052 331.517 322.079C331.451 322.107 331.38 322.121 331.308 322.12H73.5236C73.3794 322.12 73.2412 322.063 73.1392 321.961C73.0373 321.859 72.98 321.721 72.98 321.577C72.98 321.433 73.0373 321.294 73.1392 321.192C73.2412 321.09 73.3794 321.033 73.5236 321.033H331.308C331.38 321.033 331.451 321.047 331.517 321.074C331.583 321.101 331.643 321.141 331.693 321.192C331.744 321.242 331.784 321.302 331.811 321.368C331.838 321.434 331.852 321.505 331.852 321.577Z" fill="#CACACA"/>
</svg>
