<svg width="192" height="339" viewBox="0 0 192 339" fill="none" xmlns="http://www.w3.org/2000/svg">
<path d="M155.673 0H36.6556C18.1448 0 3.13892 15.0059 3.13892 33.5167V305.483C3.13892 323.994 18.1448 339 36.6556 339H155.673C174.183 339 189.189 323.994 189.189 305.483V33.5167C189.189 15.0059 174.183 0 155.673 0Z" fill="#2D2F31"/>
<path d="M186.051 33.519V305.484C186.041 313.538 182.838 321.259 177.143 326.954C171.448 332.65 163.726 335.853 155.672 335.862H36.6568C28.6027 335.853 20.8812 332.65 15.1861 326.954C9.49099 321.259 6.28739 313.538 6.27808 305.484V33.519C6.2874 25.4649 9.49099 17.7434 15.1861 12.0483C20.8812 6.35319 28.6027 3.14958 36.6568 3.14026H52.22V8.51633C52.2201 10.9502 53.187 13.2843 54.908 15.0053C56.629 16.7262 58.9631 17.6932 61.397 17.6933H130.932C133.366 17.6932 135.7 16.7262 137.421 15.0053C139.142 13.2843 140.109 10.9502 140.109 8.51633V3.14026H155.672C163.726 3.14958 171.448 6.35319 177.143 12.0483C182.838 17.7434 186.041 25.4649 186.051 33.519Z" fill="#3C3F42"/>
<path d="M2.28283 68.7702C1.6776 68.7695 1.09735 68.5287 0.66939 68.1008C0.241427 67.6728 0.000694817 67.0926 0 66.4873V61.9217C0 61.3162 0.24051 60.7356 0.668623 60.3075C1.09674 59.8794 1.67738 59.6389 2.28283 59.6389C2.88827 59.6389 3.46892 59.8794 3.89703 60.3075C4.32515 60.7356 4.56566 61.3162 4.56566 61.9217V66.4873C4.56496 67.0926 4.32423 67.6728 3.89627 68.1008C3.4683 68.5287 2.88806 68.7695 2.28283 68.7702Z" fill="#2D2F31"/>
<path d="M2.28283 92.1814C1.6776 92.1808 1.09735 91.94 0.66939 91.5121C0.241426 91.0841 0.000691802 90.5038 0 89.8986V77.3308C0 76.7254 0.24051 76.1447 0.668623 75.7166C1.09674 75.2885 1.67738 75.048 2.28283 75.048C2.88827 75.048 3.46892 75.2885 3.89703 75.7166C4.32515 76.1447 4.56566 76.7254 4.56566 77.3308V89.8986C4.56496 90.5038 4.32423 91.0841 3.89627 91.5121C3.4683 91.94 2.88806 92.1808 2.28283 92.1814Z" fill="#2D2F31"/>
<path d="M2.28283 111.002C1.6776 111.002 1.09735 110.761 0.66939 110.333C0.241426 109.905 0.000691802 109.325 0 108.72V96.1518C0 95.5464 0.24051 94.9658 0.668623 94.5376C1.09674 94.1095 1.67738 93.869 2.28283 93.869C2.88827 93.869 3.46892 94.1095 3.89703 94.5376C4.32515 94.9658 4.56566 95.5464 4.56566 96.1518V108.72C4.56496 109.325 4.32423 109.905 3.89627 110.333C3.4683 110.761 2.88806 111.002 2.28283 111.002Z" fill="#2D2F31"/>
<path d="M189.475 100.73C188.869 100.729 188.289 100.488 187.861 100.06C187.433 99.6324 187.193 99.0522 187.192 98.447V67.7809C187.192 67.1755 187.432 66.5948 187.861 66.1667C188.289 65.7386 188.869 65.4981 189.475 65.4981C190.08 65.4981 190.661 65.7386 191.089 66.1667C191.517 66.5948 191.758 67.1755 191.758 67.7809V98.447C191.757 99.0522 191.516 99.6324 191.088 100.06C190.66 100.488 190.08 100.729 189.475 100.73Z" fill="#2D2F31"/>
<path d="M101.068 10.4701H83.376C82.9976 10.4701 82.6347 10.3197 82.3671 10.0522C82.0995 9.78459 81.9492 9.42169 81.9492 9.04328C81.9492 8.66488 82.0995 8.30198 82.3671 8.03441C82.6347 7.76684 82.9976 7.61652 83.376 7.61652H101.068C101.446 7.61652 101.809 7.76684 102.077 8.03441C102.344 8.30198 102.495 8.66488 102.495 9.04328C102.495 9.42169 102.344 9.78459 102.077 10.0522C101.809 10.3197 101.446 10.4701 101.068 10.4701Z" fill="white"/>
<path d="M110.199 10.1847C110.83 10.1847 111.341 9.67372 111.341 9.04333C111.341 8.41294 110.83 7.90192 110.199 7.90192C109.569 7.90192 109.058 8.41294 109.058 9.04333C109.058 9.67372 109.569 10.1847 110.199 10.1847Z" fill="white"/>
<path d="M45.4204 16.5922H30.0113C29.2544 16.5922 28.5286 16.2916 27.9935 15.7564C27.4584 15.2213 27.1577 14.4955 27.1577 13.7387C27.1577 12.9819 27.4584 12.2561 27.9935 11.7209C28.5286 11.1858 29.2544 10.8851 30.0113 10.8851H45.4204C46.1772 10.8851 46.903 11.1858 47.4381 11.7209C47.9732 12.2561 48.2739 12.9819 48.2739 13.7387C48.2739 14.4955 47.9732 15.2213 47.4381 15.7564C46.903 16.2916 46.1772 16.5922 45.4204 16.5922Z" fill="#CD7456"/>
<path d="M146.435 16.3068C147.854 16.3068 149.004 15.157 149.004 13.7387C149.004 12.3203 147.854 11.1705 146.435 11.1705C145.017 11.1705 143.867 12.3203 143.867 13.7387C143.867 15.157 145.017 16.3068 146.435 16.3068Z" fill="#CD7456"/>
<path d="M154.425 16.3068C155.844 16.3068 156.994 15.157 156.994 13.7387C156.994 12.3203 155.844 11.1705 154.425 11.1705C153.007 11.1705 151.857 12.3203 151.857 13.7387C151.857 15.157 153.007 16.3068 154.425 16.3068Z" fill="#CD7456"/>
<path d="M162.415 16.3068C163.833 16.3068 164.983 15.157 164.983 13.7387C164.983 12.3203 163.833 11.1705 162.415 11.1705C160.997 11.1705 159.847 12.3203 159.847 13.7387C159.847 15.157 160.997 16.3068 162.415 16.3068Z" fill="#CD7456"/>
<path d="M144.64 56.4755H47.7908C45.9147 56.4781 44.1162 57.2245 42.7896 58.5511C41.463 59.8777 40.7166 61.6762 40.714 63.5523V126.507C40.7166 128.383 41.463 130.182 42.7896 131.508C44.1162 132.835 45.9147 133.581 47.7908 133.584H144.64C146.516 133.582 148.315 132.836 149.642 131.509C150.969 130.182 151.715 128.383 151.717 126.507V63.5523C151.715 61.6759 150.969 59.8769 149.642 58.5501C148.315 57.2232 146.516 56.4771 144.64 56.4755Z" fill="#CD7456"/>
<path d="M154.124 192.681H38.4652C36.5891 192.679 34.7905 191.933 33.4639 190.606C32.1373 189.28 31.3911 187.481 31.3889 185.605V170.017C31.3911 168.141 32.1373 166.342 33.4639 165.016C34.7905 163.689 36.5891 162.943 38.4652 162.941H154.124C156 162.943 157.799 163.689 159.125 165.016C160.452 166.342 161.198 168.141 161.2 170.017V185.605C161.198 187.481 160.452 189.28 159.125 190.606C157.799 191.933 156 192.679 154.124 192.681Z" fill="#F2F2F2"/>
<path d="M153.994 232.631H38.3351C36.459 232.628 34.6604 231.882 33.3338 230.556C32.0072 229.229 31.2609 227.43 31.2588 225.554V209.967C31.2609 208.091 32.0072 206.292 33.3338 204.965C34.6604 203.639 36.459 202.893 38.3351 202.89H153.994C155.87 202.893 157.669 203.639 158.995 204.965C160.322 206.292 161.068 208.091 161.07 209.967V225.554C161.068 227.43 160.322 229.229 158.995 230.556C157.669 231.882 155.87 232.628 153.994 232.631Z" fill="#F2F2F2"/>
<path d="M153.994 272.58H38.3351C36.459 272.578 34.6604 271.832 33.3338 270.505C32.0072 269.178 31.2609 267.38 31.2588 265.504V249.916C31.2609 248.04 32.0072 246.241 33.3338 244.915C34.6604 243.588 36.459 242.842 38.3351 242.84H153.994C155.87 242.842 157.669 243.588 158.995 244.915C160.322 246.241 161.068 248.04 161.07 249.916V265.504C161.068 267.38 160.322 269.178 158.995 270.505C157.669 271.832 155.87 272.578 153.994 272.58Z" fill="#303234"/>
<path d="M110.216 255.042H76.1382C75.7339 255.042 75.3462 254.882 75.0603 254.596C74.7744 254.31 74.6138 253.922 74.6138 253.518C74.6138 253.114 74.7744 252.726 75.0603 252.44C75.3462 252.154 75.7339 251.993 76.1382 251.993H110.216C110.62 251.993 111.008 252.154 111.294 252.44C111.58 252.726 111.741 253.114 111.741 253.518C111.741 253.922 111.58 254.31 111.294 254.596C111.008 254.882 110.62 255.042 110.216 255.042Z" fill="#3C3F42"/>
<path d="M142.992 263.427H75.7571C75.3528 263.427 74.965 263.266 74.6792 262.98C74.3933 262.694 74.2327 262.307 74.2327 261.902C74.2327 261.498 74.3933 261.11 74.6792 260.824C74.965 260.539 75.3528 260.378 75.7571 260.378H142.992C143.396 260.378 143.784 260.539 144.07 260.824C144.356 261.11 144.516 261.498 144.516 261.902C144.516 262.307 144.356 262.694 144.07 262.98C143.784 263.266 143.396 263.427 142.992 263.427Z" fill="#3C3F42"/>
<path d="M58.0338 267.931C63.6787 267.931 68.2548 263.355 68.2548 257.71C68.2548 252.065 63.6787 247.489 58.0338 247.489C52.3889 247.489 47.8127 252.065 47.8127 257.71C47.8127 263.355 52.3889 267.931 58.0338 267.931Z" fill="#3C3F42"/>
<path d="M154.124 312.811H38.4652C36.5891 312.809 34.7905 312.062 33.4639 310.736C32.1373 309.409 31.3911 307.611 31.3889 305.735V290.147C31.3911 288.271 32.1373 286.472 33.4639 285.146C34.7905 283.819 36.5891 283.073 38.4652 283.071H154.124C156 283.073 157.799 283.819 159.125 285.146C160.452 286.472 161.198 288.271 161.2 290.147V305.735C161.198 307.611 160.452 309.409 159.125 310.736C157.799 312.062 156 312.809 154.124 312.811Z" fill="#303234"/>
<path d="M110.346 295.273H76.2683C75.864 295.273 75.4763 295.112 75.1904 294.827C74.9045 294.541 74.7439 294.153 74.7439 293.749C74.7439 293.344 74.9045 292.957 75.1904 292.671C75.4763 292.385 75.864 292.224 76.2683 292.224H110.346C110.751 292.224 111.138 292.385 111.424 292.671C111.71 292.957 111.871 293.344 111.871 293.749C111.871 294.153 111.71 294.541 111.424 294.827C111.138 295.112 110.751 295.273 110.346 295.273Z" fill="#3C3F42"/>
<path d="M143.122 303.658H75.887C75.4827 303.658 75.0949 303.497 74.809 303.211C74.5231 302.925 74.3625 302.537 74.3625 302.133C74.3625 301.729 74.5231 301.341 74.809 301.055C75.0949 300.769 75.4827 300.609 75.887 300.609H143.122C143.526 300.609 143.914 300.769 144.2 301.055C144.486 301.341 144.646 301.729 144.646 302.133C144.646 302.537 144.486 302.925 144.2 303.211C143.914 303.497 143.526 303.658 143.122 303.658Z" fill="#3C3F42"/>
<path d="M58.1638 308.162C63.8087 308.162 68.3849 303.586 68.3849 297.941C68.3849 292.296 63.8087 287.72 58.1638 287.72C52.5189 287.72 47.9427 292.296 47.9427 297.941C47.9427 303.586 52.5189 308.162 58.1638 308.162Z" fill="#3C3F42"/>
<path d="M154.124 192.681H38.4652C36.5891 192.679 34.7905 191.933 33.4639 190.606C32.1373 189.28 31.3911 187.481 31.3889 185.605V170.017C31.3911 168.141 32.1373 166.342 33.4639 165.016C34.7905 163.689 36.5891 162.943 38.4652 162.941H154.124C156 162.943 157.799 163.689 159.125 165.016C160.452 166.342 161.198 168.141 161.2 170.017V185.605C161.198 187.481 160.452 189.28 159.125 190.606C157.799 191.933 156 192.679 154.124 192.681Z" fill="#303234"/>
<path d="M110.346 175.143H76.2683C75.864 175.143 75.4763 174.983 75.1904 174.697C74.9045 174.411 74.7439 174.023 74.7439 173.619C74.7439 173.214 74.9045 172.827 75.1904 172.541C75.4763 172.255 75.864 172.094 76.2683 172.094H110.346C110.751 172.094 111.138 172.255 111.424 172.541C111.71 172.827 111.871 173.214 111.871 173.619C111.871 174.023 111.71 174.411 111.424 174.697C111.138 174.983 110.751 175.143 110.346 175.143Z" fill="#3C3F42"/>
<path d="M143.122 183.528H75.887C75.4827 183.528 75.0949 183.367 74.809 183.081C74.5231 182.795 74.3625 182.408 74.3625 182.003C74.3625 181.599 74.5231 181.211 74.809 180.925C75.0949 180.639 75.4827 180.479 75.887 180.479H143.122C143.526 180.479 143.914 180.639 144.2 180.925C144.486 181.211 144.646 181.599 144.646 182.003C144.646 182.408 144.486 182.795 144.2 183.081C143.914 183.367 143.526 183.528 143.122 183.528Z" fill="#3C3F42"/>
<path d="M58.1638 188.032C63.8087 188.032 68.3849 183.456 68.3849 177.811C68.3849 172.166 63.8087 167.59 58.1638 167.59C52.5189 167.59 47.9427 172.166 47.9427 177.811C47.9427 183.456 52.5189 188.032 58.1638 188.032Z" fill="#3C3F42"/>
<path d="M154.859 233H38.1411C36.2478 232.998 34.4327 232.245 33.0939 230.907C31.7552 229.569 31.0022 227.754 31 225.862V210.138C31.0022 208.246 31.7552 206.431 33.0939 205.093C34.4327 203.755 36.2478 203.002 38.1411 203H154.859C156.752 203.002 158.567 203.755 159.906 205.093C161.245 206.431 161.998 208.246 162 210.138V225.862C161.998 227.754 161.245 229.569 159.906 230.907C158.567 232.245 156.752 232.998 154.859 233Z" fill="#303234"/>
<path d="M110.346 215.093H76.2681C75.8638 215.093 75.476 214.932 75.1901 214.646C74.9043 214.36 74.7437 213.972 74.7437 213.568C74.7437 213.164 74.9043 212.776 75.1901 212.49C75.476 212.204 75.8638 212.044 76.2681 212.044H110.346C110.75 212.044 111.138 212.204 111.424 212.49C111.71 212.776 111.87 213.164 111.87 213.568C111.87 213.972 111.71 214.36 111.424 214.646C111.138 214.932 110.75 215.093 110.346 215.093Z" fill="#3C3F42"/>
<path d="M143.122 223.477H75.887C75.4827 223.477 75.0949 223.317 74.809 223.031C74.5231 222.745 74.3625 222.357 74.3625 221.953C74.3625 221.549 74.5231 221.161 74.809 220.875C75.0949 220.589 75.4827 220.428 75.887 220.428H143.122C143.526 220.428 143.914 220.589 144.2 220.875C144.486 221.161 144.646 221.549 144.646 221.953C144.646 222.357 144.486 222.745 144.2 223.031C143.914 223.317 143.526 223.477 143.122 223.477Z" fill="#3C3F42"/>
<path d="M58.1637 227.981C63.8086 227.981 68.3847 223.405 68.3847 217.76C68.3847 212.115 63.8086 207.539 58.1637 207.539C52.5187 207.539 47.9426 212.115 47.9426 217.76C47.9426 223.405 52.5187 227.981 58.1637 227.981Z" fill="#3C3F42"/>
</svg>
